<svg xmlns="http://www.w3.org/2000/svg" viewBox="0 0 64 64" fill="none">
  <!-- Left half of D (tan/brown) -->
  <path d="M10 6 L26 6 L26 18 L10 18 L10 46 L26 46 L26 58 L10 58 Z" fill="#B8A088"/>
  <!-- Right half of D (dark gray arc) -->
  <path d="M26 6 Q56 6 56 32 Q56 58 26 58 L26 46 Q42 46 42 32 Q42 18 26 18 Z" fill="#4A4048"/>
  <!-- Growth line -->
  <line x1="15" y1="46" x2="24" y2="30" stroke="#4A4048" stroke-width="2" stroke-linecap="round"/>
  <line x1="24" y1="30" x2="34" y2="21" stroke="#4A4048" stroke-width="2" stroke-linecap="round"/>
  <line x1="34" y1="21" x2="42" y2="12" stroke="#4A4048" stroke-width="2" stroke-linecap="round"/>
  <!-- Data points -->
  <circle cx="15" cy="46" r="2.5" fill="#4A4048"/>
  <circle cx="24" cy="30" r="2.5" fill="#4A4048"/>
  <circle cx="34" cy="21" r="2.5" fill="#4A4048"/>
  <circle cx="42" cy="12" r="2.5" fill="#4A4048"/>
</svg>
